<svg width="55" height="38" viewBox="0 0 55 38" fill="none" xmlns="http://www.w3.org/2000/svg">
<g filter="url(#filter0_d_1018_29)">
<rect x="1" width="53" height="36" rx="5" fill="#D9D9D9"/>
<rect x="1" width="53" height="36" rx="5" fill="url(#paint0_linear_1018_29)" fill-opacity="0.2"/>
</g>
<path d="M27.2947 14.2929C27.4669 14.1207 27.696 14.0173 27.939 14.002C28.182 13.9867 28.4223 14.0606 28.6147 14.2099L28.7087 14.2929L34.7087 20.2929L34.7917 20.3869L34.8457 20.4639L34.8997 20.5599L34.9167 20.5959L34.9437 20.6629L34.9757 20.7709L34.9857 20.8239L34.9957 20.8839L34.9997 20.9409L35.0017 20.9999L34.9997 21.0589L34.9947 21.1169L34.9857 21.1769L34.9757 21.2289L34.9437 21.3369L34.9167 21.4039L34.8467 21.5359L34.7817 21.6259L34.7087 21.7069L34.6147 21.7899L34.5377 21.8439L34.4417 21.8979L34.4057 21.9149L34.3387 21.9419L34.2307 21.9739L34.1777 21.9839L34.1177 21.9939L34.0607 21.9979L34.0017 21.9999H22.0017C21.1497 21.9999 20.7047 21.0139 21.2187 20.3769L21.2947 20.2929L27.2947 14.2929Z" fill="black"/>
<defs>
<filter id="filter0_d_1018_29" x="0" y="0" width="55" height="38" filterUnits="userSpaceOnUse" color-interpolation-filters="sRGB">
<feFlood flood-opacity="0" result="BackgroundImageFix"/>
<feColorMatrix in="SourceAlpha" type="matrix" values="0 0 0 0 0 0 0 0 0 0 0 0 0 0 0 0 0 0 127 0" result="hardAlpha"/>
<feOffset dy="1"/>
<feGaussianBlur stdDeviation="0.5"/>
<feComposite in2="hardAlpha" operator="out"/>
<feColorMatrix type="matrix" values="0 0 0 0 0 0 0 0 0 0 0 0 0 0 0 0 0 0 0.4 0"/>
<feBlend mode="normal" in2="BackgroundImageFix" result="effect1_dropShadow_1018_29"/>
<feBlend mode="normal" in="SourceGraphic" in2="effect1_dropShadow_1018_29" result="shape"/>
</filter>
<linearGradient id="paint0_linear_1018_29" x1="27.5" y1="0" x2="27.5" y2="36" gradientUnits="userSpaceOnUse">
<stop stop-opacity="0"/>
<stop offset="1"/>
</linearGradient>
</defs>
</svg>
