<svg width="55" height="38" viewBox="0 0 55 38" fill="none" xmlns="http://www.w3.org/2000/svg">
<g filter="url(#filter0_d_1018_32)">
<rect x="1" width="53" height="36" rx="5" fill="#D9D9D9"/>
<rect x="1" width="53" height="36" rx="5" fill="url(#paint0_linear_1018_32)" fill-opacity="0.2"/>
</g>
<path d="M27.2947 21.7071C27.4669 21.8793 27.696 21.9827 27.939 21.998C28.182 22.0133 28.4223 21.9394 28.6147 21.7901L28.7087 21.7071L34.7087 15.7071L34.7917 15.6131L34.8457 15.5361L34.8997 15.4401L34.9167 15.4041L34.9437 15.3371L34.9757 15.2291L34.9857 15.1761L34.9957 15.1161L34.9997 15.0591L35.0017 15.0001L34.9997 14.9411L34.9947 14.8831L34.9857 14.8231L34.9757 14.7711L34.9437 14.6631L34.9167 14.5961L34.8467 14.4641L34.7817 14.3741L34.7087 14.2931L34.6147 14.2101L34.5377 14.1561L34.4417 14.1021L34.4057 14.0851L34.3387 14.0581L34.2307 14.0261L34.1777 14.0161L34.1177 14.0061L34.0607 14.0021L34.0017 14.0001H22.0017C21.1497 14.0001 20.7047 14.9861 21.2187 15.6231L21.2947 15.7071L27.2947 21.7071Z" fill="black"/>
<defs>
<filter id="filter0_d_1018_32" x="0" y="0" width="55" height="38" filterUnits="userSpaceOnUse" color-interpolation-filters="sRGB">
<feFlood flood-opacity="0" result="BackgroundImageFix"/>
<feColorMatrix in="SourceAlpha" type="matrix" values="0 0 0 0 0 0 0 0 0 0 0 0 0 0 0 0 0 0 127 0" result="hardAlpha"/>
<feOffset dy="1"/>
<feGaussianBlur stdDeviation="0.5"/>
<feComposite in2="hardAlpha" operator="out"/>
<feColorMatrix type="matrix" values="0 0 0 0 0 0 0 0 0 0 0 0 0 0 0 0 0 0 0.4 0"/>
<feBlend mode="normal" in2="BackgroundImageFix" result="effect1_dropShadow_1018_32"/>
<feBlend mode="normal" in="SourceGraphic" in2="effect1_dropShadow_1018_32" result="shape"/>
</filter>
<linearGradient id="paint0_linear_1018_32" x1="27.5" y1="0" x2="27.5" y2="36" gradientUnits="userSpaceOnUse">
<stop stop-opacity="0"/>
<stop offset="1"/>
</linearGradient>
</defs>
</svg>
