<svg width="50" height="50" viewBox="0 0 50 50" fill="none" xmlns="http://www.w3.org/2000/svg">
<path d="M15 24.5968C15 25.3937 15.3036 26.0768 15.9488 26.703L30.5028 40.9345C31.0152 41.4469 31.6224 41.6935 32.3435 41.6935C33.8235 41.6935 35 40.5171 35 39.056C35 38.3159 34.6964 37.6518 34.1651 37.1395L21.2808 24.5778L34.1651 12.0541C34.7154 11.5228 35 10.8586 35 10.1376C35 8.67647 33.8235 7.5 32.3435 7.5C31.6224 7.5 31.0152 7.74668 30.5028 8.25901L15.9488 22.4905C15.3036 23.1167 15.019 23.7808 15 24.5968Z" fill="black"/>
</svg>
