<svg width="50" height="50" viewBox="0 0 50 50" fill="none" xmlns="http://www.w3.org/2000/svg">
<path d="M35 24.5968C35 25.3937 34.6964 26.0769 34.0512 26.703L19.4972 40.9345C18.9848 41.4469 18.3776 41.6935 17.6565 41.6935C16.1765 41.6935 15 40.5171 15 39.056C15 38.3159 15.3036 37.6518 15.8349 37.1395L28.7192 24.5778L15.8349 12.0541C15.2846 11.5228 15 10.8586 15 10.1376C15 8.67647 16.1765 7.5 17.6565 7.5C18.3776 7.5 18.9848 7.74668 19.4972 8.25901L34.0512 22.4905C34.6964 23.1167 34.981 23.7808 35 24.5968Z" fill="black"/>
</svg>
