<svg width="25" height="24" viewBox="0 0 25 24" fill="none" xmlns="http://www.w3.org/2000/svg">
<path fill-rule="evenodd" clip-rule="evenodd" d="M2.34601 7.15099C2.19903 7.18272 2.06498 7.25789 1.96126 7.36676C1.85754 7.47563 1.78894 7.61315 1.76436 7.7615C1.73978 7.90984 1.76036 8.06215 1.82342 8.19865C1.88649 8.33515 1.98912 8.44955 2.11801 8.52699L8.63501 12.442L14.855 8.08699C14.9357 8.03052 15.0267 7.9905 15.1229 7.96921C15.2191 7.94792 15.3185 7.94578 15.4155 7.96291C15.5125 7.98005 15.6051 8.01611 15.6882 8.06906C15.7712 8.122 15.843 8.19079 15.8995 8.27149C15.956 8.35218 15.996 8.44321 16.0173 8.53938C16.0386 8.63554 16.0407 8.73496 16.0236 8.83195C16.0065 8.92894 15.9704 9.02161 15.9174 9.10466C15.8645 9.18771 15.7957 9.25952 15.715 9.31599L9.49501 13.671L10.945 21.134C10.9736 21.2818 11.0459 21.4177 11.1527 21.5238C11.2595 21.63 11.3958 21.7015 11.5439 21.7291C11.6919 21.7567 11.8448 21.7392 11.9827 21.6787C12.1206 21.6182 12.2371 21.5176 12.317 21.39L23.292 3.93999C23.3708 3.81504 23.4109 3.66962 23.4073 3.52196C23.4038 3.3743 23.3567 3.23098 23.272 3.10998C23.1873 2.98897 23.0688 2.89567 22.9313 2.84177C22.7937 2.78786 22.6434 2.77577 22.499 2.80699L2.34601 7.15099Z" fill="white"/>
</svg>
